<svg width="14" height="3" viewBox="0 0 14 3" fill="none" xmlns="http://www.w3.org/2000/svg">
<path d="M1.672 0.864C1.08 0.864 0.616 1.328 0.616 1.92C0.616 2.512 1.08 2.976 1.672 2.976C2.264 2.976 2.728 2.512 2.728 1.92C2.728 1.328 2.264 0.864 1.672 0.864ZM7 0.864C6.408 0.864 5.944 1.328 5.944 1.92C5.944 2.512 6.408 2.976 7 2.976C7.592 2.976 8.056 2.512 8.056 1.92C8.056 1.328 7.592 0.864 7 0.864ZM12.328 0.864C11.736 0.864 11.272 1.328 11.272 1.92C11.272 2.512 11.736 2.976 12.328 2.976C12.92 2.976 13.384 2.512 13.384 1.92C13.384 1.328 12.92 0.864 12.328 0.864Z" fill="black"/>
</svg>
