<?xml version="1.0" encoding="UTF-8"?>
<svg id="_レイヤー_2" data-name="レイヤー 2" xmlns="http://www.w3.org/2000/svg" viewBox="0 0 452.8 71.83">
  <defs>
    <style>
      .cls-1 {
        fill: #faebd8;
      }

      .cls-1, .cls-2, .cls-3, .cls-4 {
        stroke: #909090;
        stroke-miterlimit: 10;
      }

      .cls-2 {
        fill: #e0e7d3;
      }

      .cls-3 {
        fill: #fcf6db;
      }

      .cls-5, .cls-6 {
        isolation: isolate;
      }

      .cls-7 {
        letter-spacing: .15em;
      }

      .cls-4 {
        fill: #c9b6ac;
      }

      .cls-8 {
        letter-spacing: .17em;
      }

      .cls-6 {
        fill: #707070;
        font-family: YuGothicUI-Regular, 'Yu Gothic UI';
        font-size: 55px;
      }
    </style>
  </defs>
  <g id="_レイヤー_1-2" data-name="レイヤー 1">
    <g id="My_Portfolio" data-name="My Portfolio" class="cls-5">
      <text class="cls-6" transform="translate(51.49 55.5)"><tspan class="cls-8" x="0" y="0">My </tspan><tspan class="cls-7" x="118.95" y="0">P</tspan><tspan class="cls-8" x="157.95" y="0">ortfolio</tspan></text>
      <g>
        <path class="cls-1" d="M15.19,47.52s6.63,14.5-.75,20.71l16.59.21s-7.17-5.46-.86-20.92h-14.98Z"/>
        <rect class="cls-2" x="20.59" y="28.58" width="4.33" height="18.94"/>
        <path class="cls-3" d="M17.54,26.11s-13.08,5.04-14.89,11.95c0,0-.7,5.88,17.54-9.28l-2.65-2.67Z"/>
        <path class="cls-3" d="M22.46,19.71S23.82-2.76,18.23.9c0,0-4.92,2.29,1.34,19.66l2.89-.86Z"/>
        <path class="cls-3" d="M26.82,20.93s16.25-9.59,11.53-14.15c0,0-4.69-5.72-13.84,12.58l2.31,1.57Z"/>
        <path class="cls-3" d="M27.48,25.56s18.02,2.06,17.83-3.4c0,0,0-5.14-18.18.49l.35,2.92Z"/>
        <path class="cls-3" d="M24.93,27.93s10.96,14.81,13.85,11.08c0,0,2.96-7.12-11.77-12.91l-2.08,1.82Z"/>
        <path class="cls-3" d="M18.24,21.18S3.37,8.94.63,13.81c0,0-2.66,5.03,16.53,10.97l1.08-3.61Z"/>
        <path class="cls-4" d="M21.92,29.23s-4.85-.21-4.85-5.03c0,0,.65-5.35,4.85-5.35,0,0,5.79-1.3,6.11,6.21,0,0-.78,4.19-6.11,4.17Z"/>
      </g>
    </g>
  </g>
</svg>